<svg width="60" height="58" viewBox="0 0 60 58" fill="none" xmlns="http://www.w3.org/2000/svg">
<path d="M58.0003 21.2125V45.9746C58.0003 51.4974 53.5231 55.9746 48.0003 55.9746H26.1599C20.6371 55.9746 16.1599 51.4974 16.1599 45.9746V12C16.1599 6.47715 20.6371 2 26.1599 2H38.7878V7.21251C38.7878 14.9445 45.0558 21.2125 52.7878 21.2125H58.0003ZM55.1718 17.2125H52.7878C47.2649 17.2125 42.7878 12.7354 42.7878 7.21251V4.82843L55.1718 17.2125Z" fill="#EEF1F7" stroke="#CBD0DC" stroke-width="4"/>
<rect y="25.6163" width="40.4474" height="23.5943" rx="7" fill="#CC0808"/>
<path d="M7.66264 32.5455H9.36151V39.1932C9.35843 39.8026 9.22917 40.3273 8.97372 40.7674C8.71828 41.2044 8.36127 41.5414 7.9027 41.7784C7.44721 42.0123 6.91631 42.1293 6.31001 42.1293C5.75604 42.1293 5.25746 42.0308 4.81428 41.8338C4.37417 41.6338 4.02486 41.3383 3.76634 40.9474C3.50781 40.5566 3.37855 40.0703 3.37855 39.4886H5.08203C5.08511 39.7441 5.14051 39.9641 5.24822 40.1488C5.35902 40.3335 5.51136 40.475 5.70526 40.5735C5.89915 40.672 6.12228 40.7212 6.37464 40.7212C6.64856 40.7212 6.88092 40.6643 7.07173 40.5504C7.26255 40.4335 7.4072 40.2611 7.50568 40.0334C7.60724 39.8056 7.65956 39.5256 7.66264 39.1932V32.5455ZM11.2196 42V32.5455H14.7651C15.4914 32.5455 16.1008 32.6809 16.5932 32.9517C17.0887 33.2225 17.4627 33.5949 17.715 34.0689C17.9705 34.5398 18.0982 35.0753 18.0982 35.6754C18.0982 36.2817 17.9705 36.8203 17.715 37.2912C17.4596 37.7621 17.0826 38.1329 16.584 38.4038C16.0854 38.6715 15.4714 38.8054 14.742 38.8054H12.3922V37.3974H14.5112C14.9359 37.3974 15.2837 37.3235 15.5545 37.1758C15.8253 37.0281 16.0254 36.8249 16.1547 36.5664C16.287 36.3079 16.3532 36.0109 16.3532 35.6754C16.3532 35.34 16.287 35.0445 16.1547 34.7891C16.0254 34.5336 15.8238 34.3351 15.5499 34.1935C15.2791 34.0489 14.9297 33.9766 14.502 33.9766H12.9324V42H11.2196ZM19.5858 42V32.5455H25.735V33.9812H21.2986V36.5479H25.4165V37.9837H21.2986V40.5643H25.7719V42H19.5858ZM33.8161 35.5646C33.7392 35.3153 33.633 35.0922 33.4976 34.8952C33.3653 34.6952 33.2052 34.5244 33.0175 34.3828C32.8328 34.2412 32.6205 34.1351 32.3804 34.0643C32.1404 33.9904 31.8788 33.9535 31.5956 33.9535C31.0878 33.9535 30.6354 34.0812 30.2384 34.3366C29.8414 34.5921 29.529 34.9676 29.3012 35.4631C29.0766 35.9555 28.9642 36.5556 28.9642 37.2635C28.9642 37.9775 29.0766 38.5823 29.3012 39.0778C29.5259 39.5733 29.8383 39.9503 30.2384 40.2088C30.6385 40.4643 31.1032 40.592 31.6325 40.592C32.1127 40.592 32.5281 40.4996 32.879 40.315C33.2329 40.1303 33.5053 39.8687 33.6961 39.5302C33.8869 39.1886 33.9823 38.7885 33.9823 38.3299L34.3701 38.3899H31.8034V37.0511H35.6396V38.1868C35.6396 38.9962 35.4673 39.6964 35.1226 40.2873C34.7779 40.8782 34.3039 41.3337 33.7007 41.6538C33.0975 41.9708 32.405 42.1293 31.6233 42.1293C30.7523 42.1293 29.9875 41.9338 29.3289 41.543C28.6734 41.149 28.161 40.5904 27.7916 39.8672C27.4254 39.1409 27.2423 38.2791 27.2423 37.282C27.2423 36.5187 27.35 35.837 27.5654 35.2369C27.7839 34.6367 28.0886 34.1274 28.4795 33.7088C28.8704 33.2872 29.3289 32.9671 29.8552 32.7486C30.3815 32.527 30.9539 32.4162 31.5725 32.4162C32.0957 32.4162 32.5835 32.4931 33.036 32.647C33.4884 32.7978 33.89 33.0133 34.2409 33.2933C34.5948 33.5734 34.8856 33.9058 35.1134 34.2905C35.3411 34.6752 35.4904 35.0999 35.5612 35.5646H33.8161Z" fill="white"/>
</svg>
