<svg width="60" height="58" viewBox="0 0 60 58" fill="none" xmlns="http://www.w3.org/2000/svg">
<path d="M58.0003 21.2125V45.9746C58.0003 51.4974 53.5231 55.9746 48.0003 55.9746H26.1599C20.6371 55.9746 16.1599 51.4974 16.1599 45.9746V12C16.1599 6.47715 20.6371 2 26.1599 2H38.7878V7.21251C38.7878 14.9445 45.0558 21.2125 52.7878 21.2125H58.0003ZM55.1718 17.2125H52.7878C47.2649 17.2125 42.7878 12.7354 42.7878 7.21251V4.82843L55.1718 17.2125Z" fill="#EEF1F7" stroke="#CBD0DC" stroke-width="4"/>
<rect y="25.6163" width="40.4474" height="23.5943" rx="7" fill="#CC0808"/>
<path d="M9.66264 32.5455H11.3615V39.1932C11.3584 39.8026 11.2292 40.3273 10.9737 40.7674C10.7183 41.2044 10.3613 41.5414 9.9027 41.7784C9.44721 42.0123 8.91631 42.1293 8.31001 42.1293C7.75604 42.1293 7.25746 42.0308 6.81428 41.8338C6.37417 41.6338 6.02486 41.3383 5.76634 40.9474C5.50781 40.5566 5.37855 40.0703 5.37855 39.4886H7.08203C7.08511 39.7441 7.14051 39.9641 7.24822 40.1488C7.35902 40.3335 7.51136 40.475 7.70526 40.5735C7.89915 40.672 8.12228 40.7212 8.37464 40.7212C8.64856 40.7212 8.88092 40.6643 9.07173 40.5504C9.26255 40.4335 9.4072 40.2611 9.50568 40.0334C9.60724 39.8056 9.65956 39.5256 9.66264 39.1932V32.5455ZM13.2196 42V32.5455H16.7651C17.4914 32.5455 18.1008 32.6809 18.5932 32.9517C19.0887 33.2225 19.4627 33.5949 19.715 34.0689C19.9705 34.5398 20.0982 35.0753 20.0982 35.6754C20.0982 36.2817 19.9705 36.8203 19.715 37.2912C19.4596 37.7621 19.0826 38.1329 18.584 38.4038C18.0854 38.6715 17.4714 38.8054 16.742 38.8054H14.3922V37.3974H16.5112C16.9359 37.3974 17.2837 37.3235 17.5545 37.1758C17.8253 37.0281 18.0254 36.8249 18.1547 36.5664C18.287 36.3079 18.3532 36.0109 18.3532 35.6754C18.3532 35.34 18.287 35.0445 18.1547 34.7891C18.0254 34.5336 17.8238 34.3351 17.5499 34.1935C17.2791 34.0489 16.9297 33.9766 16.502 33.9766H14.9324V42H13.2196ZM27.9197 35.5646C27.8427 35.3153 27.7365 35.0922 27.6011 34.8952C27.4688 34.6952 27.3087 34.5244 27.121 34.3828C26.9363 34.2412 26.724 34.1351 26.4839 34.0643C26.2439 33.9904 25.9823 33.9535 25.6991 33.9535C25.1913 33.9535 24.7389 34.0812 24.3419 34.3366C23.9449 34.5921 23.6325 34.9676 23.4047 35.4631C23.1801 35.9555 23.0677 36.5556 23.0677 37.2635C23.0677 37.9775 23.1801 38.5823 23.4047 39.0778C23.6294 39.5733 23.9418 39.9503 24.3419 40.2088C24.742 40.4643 25.2067 40.592 25.7361 40.592C26.2162 40.592 26.6317 40.4996 26.9825 40.315C27.3364 40.1303 27.6088 39.8687 27.7996 39.5302C27.9904 39.1886 28.0858 38.7885 28.0858 38.3299L28.4736 38.3899H25.9069V37.0511H29.7432V38.1868C29.7432 38.9962 29.5708 39.6964 29.2261 40.2873C28.8814 40.8782 28.4075 41.3337 27.8042 41.6538C27.201 41.9708 26.5086 42.1293 25.7268 42.1293C24.8559 42.1293 24.0911 41.9338 23.4324 41.543C22.7769 41.149 22.2645 40.5904 21.8952 39.8672C21.5289 39.1409 21.3458 38.2791 21.3458 37.282C21.3458 36.5187 21.4535 35.837 21.6689 35.2369C21.8875 34.6367 22.1921 34.1274 22.583 33.7088C22.9739 33.2872 23.4324 32.9671 23.9587 32.7486C24.485 32.527 25.0574 32.4162 25.676 32.4162C26.1992 32.4162 26.6871 32.4931 27.1395 32.647C27.5919 32.7978 27.9935 33.0133 28.3444 33.2933C28.6983 33.5734 28.9891 33.9058 29.2169 34.2905C29.4446 34.6752 29.5939 35.0999 29.6647 35.5646H27.9197Z" fill="white"/>
</svg>
