<svg width="60" height="58" viewBox="0 0 60 58" fill="none" xmlns="http://www.w3.org/2000/svg">
<path d="M58.0003 21.2125V45.9746C58.0003 51.4974 53.5231 55.9746 48.0003 55.9746H26.1599C20.6371 55.9746 16.1599 51.4974 16.1599 45.9746V12C16.1599 6.47715 20.6371 2 26.1599 2H38.7878V7.21251C38.7878 14.9445 45.0558 21.2125 52.7878 21.2125H58.0003ZM55.1718 17.2125H52.7878C47.2649 17.2125 42.7878 12.7354 42.7878 7.21251V4.82843L55.1718 17.2125Z" fill="#EEF1F7" stroke="#CBD0DC" stroke-width="4"/>
<rect y="25.6163" width="40.4474" height="23.5943" rx="7" fill="#CC0808"/>
<path d="M5.93253 42V32.5455H9.47798C10.2043 32.5455 10.8137 32.6809 11.3061 32.9517C11.8016 33.2225 12.1755 33.5949 12.4279 34.0689C12.6834 34.5398 12.8111 35.0753 12.8111 35.6754C12.8111 36.2817 12.6834 36.8203 12.4279 37.2912C12.1725 37.7621 11.7955 38.1329 11.2969 38.4038C10.7983 38.6715 10.1843 38.8054 9.4549 38.8054H7.10511V37.3974H9.22408C9.64879 37.3974 9.99657 37.3235 10.2674 37.1758C10.5382 37.0281 10.7383 36.8249 10.8675 36.5664C10.9999 36.3079 11.0661 36.0109 11.0661 35.6754C11.0661 35.34 10.9999 35.0445 10.8675 34.7891C10.7383 34.5336 10.5367 34.3351 10.2628 34.1935C9.99195 34.0489 9.64264 33.9766 9.21484 33.9766H7.64524V42H5.93253ZM22.0683 32.5455V42H20.5448L16.0899 35.56H16.0115V42H14.2987V32.5455H15.8314L20.2817 38.9901H20.3648V32.5455H22.0683ZM30.2683 35.5646C30.1913 35.3153 30.0852 35.0922 29.9498 34.8952C29.8174 34.6952 29.6574 34.5244 29.4696 34.3828C29.285 34.2412 29.0726 34.1351 28.8326 34.0643C28.5925 33.9904 28.3309 33.9535 28.0478 33.9535C27.54 33.9535 27.0875 34.0812 26.6905 34.3366C26.2935 34.5921 25.9811 34.9676 25.7534 35.4631C25.5287 35.9555 25.4164 36.5556 25.4164 37.2635C25.4164 37.9775 25.5287 38.5823 25.7534 39.0778C25.978 39.5733 26.2904 39.9503 26.6905 40.2088C27.0906 40.4643 27.5553 40.592 28.0847 40.592C28.5648 40.592 28.9803 40.4996 29.3311 40.315C29.6851 40.1303 29.9574 39.8687 30.1483 39.5302C30.3391 39.1886 30.4345 38.7885 30.4345 38.3299L30.8223 38.3899H28.2555V37.0511H32.0918V38.1868C32.0918 38.9962 31.9194 39.6964 31.5748 40.2873C31.2301 40.8782 30.7561 41.3337 30.1529 41.6538C29.5497 41.9708 28.8572 42.1293 28.0755 42.1293C27.2045 42.1293 26.4397 41.9338 25.7811 41.543C25.1255 41.149 24.6131 40.5904 24.2438 39.8672C23.8775 39.1409 23.6944 38.2791 23.6944 37.282C23.6944 36.5187 23.8021 35.837 24.0176 35.2369C24.2361 34.6367 24.5408 34.1274 24.9316 33.7088C25.3225 33.2872 25.7811 32.9671 26.3074 32.7486C26.8336 32.527 27.4061 32.4162 28.0247 32.4162C28.5479 32.4162 29.0357 32.4931 29.4881 32.647C29.9405 32.7978 30.3422 33.0133 30.693 33.2933C31.0469 33.5734 31.3378 33.9058 31.5655 34.2905C31.7933 34.6752 31.9425 35.0999 32.0133 35.5646H30.2683Z" fill="white"/>
</svg>
