<svg width="60" height="58" viewBox="0 0 60 58" fill="none" xmlns="http://www.w3.org/2000/svg">
<path d="M48.0003 55.9746H26.1599C20.6371 55.9746 16.1599 51.4974 16.1599 45.9746V12C16.1599 6.47715 20.6371 2 26.1599 2H39.9593L58.0003 20.0409V45.9746C58.0003 51.4974 53.5231 55.9746 48.0003 55.9746Z" fill="#EEF1F7" stroke="#CBD0DC" stroke-width="4"/>
<rect y="25.6163" width="40.4474" height="23.5943" rx="7" fill="#018BD3"/>
<path d="M11.0707 35.1445C11.0276 34.7414 10.846 34.4274 10.5259 34.2028C10.2089 33.9781 9.79652 33.8658 9.28871 33.8658C8.9317 33.8658 8.62547 33.9196 8.37003 34.0273C8.11458 34.1351 7.91915 34.2812 7.78374 34.4659C7.64832 34.6506 7.57907 34.8614 7.57599 35.0984C7.57599 35.2953 7.62062 35.4661 7.70987 35.6108C7.8022 35.7554 7.92685 35.8786 8.08381 35.9801C8.24077 36.0786 8.41465 36.1617 8.60547 36.2294C8.79628 36.2971 8.98864 36.354 9.18253 36.4002L10.0689 36.6218C10.4259 36.7049 10.7691 36.8172 11.0984 36.9588C11.4308 37.1004 11.7277 37.2789 11.9893 37.4943C12.254 37.7098 12.4633 37.9698 12.6172 38.2745C12.7711 38.5792 12.848 38.9362 12.848 39.3455C12.848 39.8995 12.7064 40.3873 12.4233 40.8089C12.1402 41.2275 11.7308 41.5553 11.1953 41.7923C10.6629 42.0262 10.0181 42.1431 9.26101 42.1431C8.52545 42.1431 7.88684 42.0292 7.34517 41.8015C6.80658 41.5737 6.38494 41.2414 6.08026 40.8043C5.77865 40.3673 5.61553 39.8349 5.59091 39.207H7.27592C7.30054 39.5363 7.40211 39.8103 7.58061 40.0288C7.75911 40.2473 7.99148 40.4104 8.2777 40.5181C8.567 40.6258 8.89015 40.6797 9.24716 40.6797C9.61956 40.6797 9.94579 40.6243 10.2259 40.5135C10.509 40.3996 10.7306 40.2427 10.8906 40.0426C11.0507 39.8395 11.1322 39.6025 11.1353 39.3317C11.1322 39.0855 11.0599 38.8823 10.9183 38.7223C10.7768 38.5592 10.5782 38.4238 10.3228 38.3161C10.0704 38.2053 9.77498 38.1068 9.43643 38.0206L8.3608 37.7436C7.58215 37.5436 6.96662 37.2404 6.5142 36.8342C6.06487 36.4248 5.8402 35.8816 5.8402 35.2045C5.8402 34.6475 5.991 34.1597 6.29261 33.7411C6.5973 33.3226 7.01125 32.9979 7.53445 32.767C8.05765 32.5331 8.65009 32.4162 9.31179 32.4162C9.98272 32.4162 10.5705 32.5331 11.0753 32.767C11.5831 32.9979 11.9817 33.3195 12.271 33.7319C12.5603 34.1412 12.7095 34.6121 12.7188 35.1445H11.0707ZM15.6398 32.5455L18.1004 39.9872H18.1974L20.6533 32.5455H22.5368L19.2037 42H17.0894L13.7609 32.5455H15.6398ZM29.6081 35.5646C29.5312 35.3153 29.425 35.0922 29.2896 34.8952C29.1573 34.6952 28.9972 34.5244 28.8095 34.3828C28.6248 34.2412 28.4125 34.1351 28.1724 34.0643C27.9324 33.9904 27.6708 33.9535 27.3876 33.9535C26.8798 33.9535 26.4274 34.0812 26.0304 34.3366C25.6333 34.5921 25.321 34.9676 25.0932 35.4631C24.8685 35.9555 24.7562 36.5556 24.7562 37.2635C24.7562 37.9775 24.8685 38.5823 25.0932 39.0778C25.3179 39.5733 25.6303 39.9503 26.0304 40.2088C26.4305 40.4643 26.8952 40.592 27.4245 40.592C27.9047 40.592 28.3201 40.4996 28.671 40.315C29.0249 40.1303 29.2973 39.8687 29.4881 39.5302C29.6789 39.1886 29.7743 38.7885 29.7743 38.3299L30.1621 38.3899H27.5953V37.0511H31.4316V38.1868C31.4316 38.9962 31.2593 39.6964 30.9146 40.2873C30.5699 40.8782 30.0959 41.3337 29.4927 41.6538C28.8895 41.9708 28.197 42.1293 27.4153 42.1293C26.5443 42.1293 25.7795 41.9338 25.1209 41.543C24.4654 41.149 23.9529 40.5904 23.5836 39.8672C23.2174 39.1409 23.0343 38.2791 23.0343 37.282C23.0343 36.5187 23.142 35.837 23.3574 35.2369C23.5759 34.6367 23.8806 34.1274 24.2715 33.7088C24.6623 33.2872 25.1209 32.9671 25.6472 32.7486C26.1735 32.527 26.7459 32.4162 27.3645 32.4162C27.8877 32.4162 28.3755 32.4931 28.8279 32.647C29.2804 32.7978 29.682 33.0133 30.0328 33.2933C30.3868 33.5734 30.6776 33.9058 30.9054 34.2905C31.1331 34.6752 31.2824 35.0999 31.3532 35.5646H29.6081Z" fill="white"/>
</svg>
