<svg width="60" height="58" viewBox="0 0 60 58" fill="none" xmlns="http://www.w3.org/2000/svg">
<path d="M48.0003 55.9746H26.1599C20.6371 55.9746 16.1599 51.4974 16.1599 45.9746V12C16.1599 6.47715 20.6371 2 26.1599 2H39.9593L58.0003 20.0409V45.9746C58.0003 51.4974 53.5231 55.9746 48.0003 55.9746Z" fill="#EEF1F7" stroke="#CBD0DC" stroke-width="4"/>
<rect y="25.6163" width="40.4474" height="23.5943" rx="7" fill="#018BD3"/>
<path d="M3.92223 42L1.25391 32.5455H3.09588L4.79936 39.4933H4.88707L6.70597 32.5455H8.38175L10.2053 39.4979H10.2884L11.9918 32.5455H13.8338L11.1655 42H9.47585L7.5831 35.3661H7.50923L5.61186 42H3.92223ZM15.0214 42V32.5455H21.1705V33.9812H16.7341V36.5479H20.852V37.9837H16.7341V40.5643H21.2075V42H15.0214ZM22.9179 42V32.5455H26.5372C27.2204 32.5455 27.7883 32.6532 28.2407 32.8686C28.6962 33.081 29.0363 33.3718 29.2609 33.7411C29.4887 34.1104 29.6025 34.529 29.6025 34.9968C29.6025 35.3815 29.5287 35.7108 29.3809 35.9847C29.2332 36.2556 29.0347 36.4756 28.7854 36.6449C28.5361 36.8142 28.2576 36.9357 27.9498 37.0096V37.1019C28.2853 37.1204 28.6069 37.2235 28.9147 37.4112C29.2255 37.5959 29.4794 37.8575 29.6764 38.196C29.8734 38.5346 29.9719 38.9439 29.9719 39.424C29.9719 39.9134 29.8534 40.3535 29.6164 40.7443C29.3794 41.1321 29.0224 41.4383 28.5454 41.663C28.0683 41.8877 27.4682 42 26.7449 42H22.9179ZM24.6306 40.5689H26.4726C27.0943 40.5689 27.5421 40.4504 27.816 40.2134C28.093 39.9734 28.2314 39.6656 28.2314 39.2901C28.2314 39.0101 28.1622 38.7577 28.0237 38.533C27.8852 38.3053 27.6882 38.1268 27.4328 37.9975C27.1773 37.8652 26.8727 37.799 26.5187 37.799H24.6306V40.5689ZM24.6306 36.5664H26.3248C26.6203 36.5664 26.8865 36.5125 27.1235 36.4048C27.3605 36.294 27.5467 36.1386 27.6821 35.9386C27.8206 35.7354 27.8898 35.4954 27.8898 35.2184C27.8898 34.8522 27.7606 34.5505 27.502 34.3136C27.2466 34.0766 26.8665 33.9581 26.3618 33.9581H24.6306V36.5664ZM31.4618 42V32.5455H35.0073C35.7336 32.5455 36.343 32.6809 36.8354 32.9517C37.3309 33.2225 37.7048 33.5949 37.9572 34.0689C38.2127 34.5398 38.3404 35.0753 38.3404 35.6754C38.3404 36.2817 38.2127 36.8203 37.9572 37.2912C37.7018 37.7621 37.3248 38.1329 36.8262 38.4038C36.3276 38.6715 35.7136 38.8054 34.9842 38.8054H32.6344V37.3974H34.7534C35.1781 37.3974 35.5259 37.3235 35.7967 37.1758C36.0675 37.0281 36.2676 36.8249 36.3968 36.5664C36.5292 36.3079 36.5953 36.0109 36.5953 35.6754C36.5953 35.34 36.5292 35.0445 36.3968 34.7891C36.2676 34.5336 36.066 34.3351 35.7921 34.1935C35.5212 34.0489 35.1719 33.9766 34.7441 33.9766H33.1745V42H31.4618Z" fill="white"/>
</svg>
